<?xml version="1.0" encoding="utf-8"?>
<!-- Generator: Adobe Illustrator 27.5.0, SVG Export Plug-In . SVG Version: 6.00 Build 0)  -->
<svg version="1.1" id="Layer_1" xmlns="http://www.w3.org/2000/svg" xmlns:xlink="http://www.w3.org/1999/xlink" x="0px" y="0px"
	 viewBox="0 0 253.433 337.067" style="enable-background:new 0 0 253.433 337.067;" xml:space="preserve">
<g>
	<path style="fill:#98482A;" d="M158.407,223.664c0,0-3.273,10.728,0,27.273c3.273,16.546,29.092,17.818,29.092,17.818
		s-10.9,35.083-60.718,34.34c-49.817-0.743-61.037-34.34-61.037-34.34s25.819-1.273,29.091-17.818c3.273-16.546,0-27.273,0-27.273
		S158.407,223.048,158.407,223.664z"/>
	<path style="opacity:0.47;fill:#834D2A;" d="M95.388,247.818c3.353,3.375,7.139,6.324,11.248,8.652
		c3.64,2.062,7.591,3.634,11.718,4.377c3.885,0.699,7.889,0.569,11.772-0.081c7.76-1.3,15.038-4.74,21.541-9.086
		c2.1-1.404,4.131-2.911,6.094-4.503c-2.13-14.389,0.647-23.512,0.647-23.512c0-0.616-63.571,0-63.571,0
		S97.7,233.057,95.388,247.818z"/>
	<path style="fill:none;stroke:#C92D1C;stroke-width:0.3727;stroke-miterlimit:10;" d="M81.921,262.201"/>
	<g>
		<path style="fill:#BF1520;" d="M127.049,306.396c48.608-0.311,55.12-38.686,55.12-38.686c0.649-2.598-3.365-3.424-7.321-4.546
			c-3.956-1.122-3.719-0.886-3.956,0.059c-0.225,0.9-3.837,29.043-39.696,30.665c-37.966,1.079-47.913-23.509-48.658-30.665
			c-0.101-0.968,0-1.181-3.956-0.059c-3.956,1.122-7.97,1.948-7.321,4.546C71.263,267.71,78.441,306.707,127.049,306.396z"/>
		<path style="fill:#EB432C;" d="M249.631,332.011c-10.575-56.509-67.462-64.301-67.462-64.301s-6.512,38.375-55.12,38.686
			c-48.608,0.311-55.786-38.686-55.786-38.686s-56.887,7.792-67.462,64.301h106.244c0,0,34.333-0.331,33.341,0H249.631z"/>
	</g>
	<g>
		<path style="fill:#96442B;" d="M206.848,157.686c-1.928-6.804-9.196-9.938-16.112-7.027c-3.956,1.665-6.883,5.538-8.557,9.294
			c-0.976,2.189-1.552,4.547-1.873,6.878c-1.497,4.22-2.24,8.81-2.035,13.137c0.145,3.064,0.463,8.673,3.658,10.194
			c3.115,1.484,8.122-1.404,10.803-3.118c3.405-2.176,6.229-5.144,8.535-8.405C205.611,172.501,208.886,164.879,206.848,157.686z"/>
		<path style="opacity:0.47;fill:#834D2A;" d="M185.238,190.447c0.458-1.567,0.895-3.139,1.308-4.717
			c1.643-6.292,2.934-12.693,3.525-19.125c0.476-5.174,0.514-10.421-0.287-15.486c-3.474,1.847-6.068,5.387-7.605,8.835
			c-0.976,2.189-1.552,4.547-1.873,6.878c-1.497,4.22-2.24,8.81-2.035,13.137c0.145,3.064,0.463,8.673,3.658,10.194
			C182.892,190.621,184.037,190.66,185.238,190.447z"/>
		<path style="opacity:0.47;fill:#834D2A;" d="M203.573,158.051c-0.737-1.272-2.104-1.979-3.536-2.104
			c-3.294-0.288-6.719,2.259-8.841,4.77c-4.724,5.589-5.698,13.413-6.061,20.318c-0.021,0.404,0.557,0.098,0.602-0.185
			c0.18-1.119,0.363-2.255,0.561-3.398c0.119,0.806,0.3,1.594,0.48,2.3c0.355,1.386,1.185,2.592,2.691,2.607
			c3.636,0.035,6.219-4.548,8.015-7.186c0.169-0.248-0.199-0.3-0.339-0.13c-1.669,2.018-3.404,4.644-5.862,5.685
			c-1.979,0.838-2.831-0.59-3.342-2.237c-0.421-1.357-1.097-2.921-0.778-4.398c0.044-0.205-0.031-0.307-0.148-0.338
			c0.744-3.394,1.772-6.738,3.479-9.738c1.482-2.606,3.708-5.021,6.515-6.055c1.911-0.705,3.981-0.471,5.128,1.272
			c1.071,1.628,0.702,3.857,0.939,5.763c0.028,0.227,0.386-0.009,0.397-0.169C203.62,162.568,204.778,160.131,203.573,158.051z"/>
	</g>
	<g>
		<path style="fill:#96442B;" d="M52.459,179.115c2.307,3.261,5.131,6.229,8.536,8.405c2.682,1.714,7.688,4.602,10.803,3.118
			c3.195-1.522,3.513-7.131,3.659-10.194c0.205-4.326-0.539-8.917-2.035-13.137c-0.321-2.332-0.897-4.689-1.873-6.878
			c-1.674-3.757-4.601-7.629-8.557-9.294c-6.916-2.911-14.184,0.223-16.112,7.027C44.84,165.354,48.115,172.975,52.459,179.115z"/>
		<path style="opacity:0.47;fill:#834D2A;" d="M68.488,190.922c-0.458-1.567-0.895-3.139-1.307-4.717
			c-1.643-6.292-2.934-12.692-3.525-19.125c-0.475-5.173-0.514-10.421,0.287-15.486c3.474,1.847,6.068,5.387,7.605,8.835
			c0.976,2.189,1.552,4.547,1.873,6.878c1.497,4.22,2.24,8.811,2.035,13.137c-0.145,3.064-0.464,8.673-3.658,10.194
			C70.834,191.096,69.689,191.135,68.488,190.922z"/>
		<path style="opacity:0.47;fill:#834D2A;" d="M50.154,158.526c0.737-1.272,2.104-1.979,3.535-2.104
			c3.294-0.288,6.719,2.259,8.841,4.77c4.724,5.589,5.698,13.413,6.061,20.318c0.021,0.404-0.557,0.098-0.602-0.185
			c-0.18-1.119-0.363-2.255-0.561-3.398c-0.119,0.806-0.3,1.594-0.48,2.3c-0.355,1.386-1.185,2.593-2.691,2.607
			c-3.636,0.035-6.22-4.548-8.015-7.186c-0.169-0.248,0.199-0.3,0.339-0.13c1.669,2.018,3.404,4.644,5.862,5.685
			c1.979,0.838,2.831-0.59,3.343-2.237c0.421-1.357,1.097-2.921,0.777-4.398c-0.044-0.205,0.031-0.307,0.149-0.338
			c-0.744-3.394-1.772-6.738-3.479-9.738c-1.482-2.606-3.708-5.021-6.515-6.055c-1.911-0.705-3.981-0.471-5.128,1.272
			c-1.071,1.628-0.702,3.857-0.939,5.763c-0.028,0.227-0.386-0.009-0.397-0.169C50.106,163.043,48.948,160.606,50.154,158.526z"/>
	</g>
	<path style="fill:#AE5733;" d="M65.674,134.309c0,0,1.097,19.533,3.731,43.455c2.634,23.922,10.535,37.749,24.142,48.283
		c13.607,10.535,21.069,15.582,32.701,15.582s21.727-4.828,37.31-18.874c15.582-14.046,17.996-30.506,19.972-48.064
		c1.975-17.558,2.414-47.405-1.536-68.475c-3.95-21.069-28.444-35.355-63.39-31.265C86.067,78.758,63.698,98.755,65.674,134.309z"/>
	<g>
		<g>
			<path style="fill:#312324;" d="M197.346,99.264c2.157,6.128,12.45,5.712,17.613,1.769c0.678-0.518,1.336-1.154,1.536-1.983
				c0.445-1.848-1.53-3.49-1.522-5.391c1.705,0.858,4.049,0.016,4.817-1.732c-0.309,1.896,0.195,3.96,1.526,5.346
				c1.331,1.385,3.516,1.963,5.282,1.205c1.647-0.706,2.689-2.385,3.208-4.101c0.992-3.28,0.363-7.009-1.65-9.783
				c2.322,0.45,4.796,0.643,6.995-0.228c2.199-0.871,4.019-3.061,3.796-5.416c-0.188-1.99-1.692-3.568-3.112-4.975
				c1.963-1.62,5.048-1.244,6.994-2.884c1.208-1.018,1.745-2.651,1.827-4.229c0.224-4.306-2.885-8.555-7.056-9.646
				c1.974-1.03,3.067-3.504,2.5-5.656c-0.567-2.153-2.402-4.431-4.627-4.355c0.783,0.021,1.374-0.687,1.775-1.36
				c2.29-3.846,2.466-8.866,0.453-12.863c-0.299-0.593-0.652-1.176-1.161-1.603c-0.649-0.544-1.501-0.791-2.343-0.882
				c-3.023-0.329-6.167,1.35-7.576,4.046c0.393-2.913-0.569-5.95-2.441-8.215c-1.447-1.751-4.064-3.078-5.929-1.782
				c1.376-5.385-0.634-11.484-4.941-14.997c-0.915-0.746-1.955-1.395-3.118-1.595c-1.133-0.195-2.299,0.05-3.383,0.433
				c-3.12,1.102-5.804,3.389-7.386,6.295c-0.369-3.095-0.959-6.573-3.527-8.34c-0.911-0.627-1.995-0.967-3.087-1.145
				c-2.533-0.412-5.293,0.071-7.265,1.713c-1.972,1.641-2.952,4.543-1.974,6.915c-1.147-2.539-4.405-3.889-7.013-2.906
				c-2.607,0.984-4.162,4.149-3.346,6.814c-3.668-2.416-9.206-1.267-11.61,2.409c-2.403,3.676-1.235,9.211,2.449,11.601
				c-2.847-0.74-5.677,1.45-7.208,3.962c-3.581,5.877-2.382,14.223,2.709,18.854C159.553,54.557,186.023,67.096,197.346,99.264z"/>
			<path style="opacity:0.31;fill:#312324;" d="M195.656,95.533c1.82,5.171,10.506,4.82,14.862,1.493
				c0.572-0.437,1.127-0.974,1.296-1.673c0.376-1.559-1.291-2.945-1.285-4.549c1.439,0.724,3.416,0.013,4.065-1.462
				c-0.261,1.6,0.164,3.342,1.287,4.511s2.967,1.656,4.457,1.017c1.39-0.596,2.269-2.013,2.707-3.46
				c0.837-2.768,0.306-5.915-1.392-8.255c1.96,0.38,4.047,0.543,5.903-0.193c1.856-0.735,3.391-2.583,3.204-4.571
				c-0.159-1.679-1.428-3.011-2.626-4.198c1.657-1.367,4.259-1.05,5.902-2.433c1.02-0.859,1.472-2.237,1.542-3.568
				c0.189-3.633-2.434-7.219-5.954-8.139c1.665-0.869,2.588-2.956,2.11-4.773c-0.478-1.816-2.027-3.739-3.904-3.675
				c0.661,0.018,1.16-0.58,1.498-1.147c1.932-3.245,2.081-7.481,0.382-10.854c-0.252-0.501-0.55-0.992-0.979-1.352
				c-0.548-0.459-1.267-0.668-1.977-0.745c-2.551-0.277-5.204,1.139-6.392,3.414c0.331-2.458-0.48-5.021-2.06-6.932
				c-1.221-1.478-3.429-2.597-5.003-1.504c1.161-4.544-0.535-9.691-4.169-12.655c-0.772-0.63-1.649-1.177-2.631-1.346
				c-0.956-0.165-1.94,0.042-2.855,0.365c-2.632,0.93-4.898,2.86-6.233,5.312c-0.312-2.612-0.809-5.546-2.976-7.038
				c-0.769-0.529-1.683-0.816-2.605-0.966c-2.137-0.348-4.466,0.06-6.13,1.445c-1.664,1.385-2.491,3.834-1.666,5.835
				c-0.968-2.143-3.717-3.282-5.917-2.452c-2.2,0.83-3.512,3.501-2.823,5.75c-3.095-2.039-7.768-1.069-9.796,2.033
				c-2.028,3.102-1.042,7.772,2.067,9.789c-2.402-0.625-4.791,1.224-6.082,3.343c-3.022,4.959-2.01,12.001,2.286,15.909
				C163.765,57.809,186.101,68.39,195.656,95.533z"/>
			<path style="opacity:0.31;fill:#312324;" d="M193.96,93.124c1.56,4.431,9.002,4.13,12.735,1.279
				c0.49-0.374,0.966-0.834,1.11-1.434c0.322-1.336-1.106-2.523-1.101-3.898c1.233,0.621,2.927,0.011,3.483-1.252
				c-0.223,1.371,0.141,2.863,1.103,3.865c0.962,1.002,2.542,1.419,3.819,0.871c1.191-0.511,1.944-1.725,2.319-2.965
				c0.717-2.372,0.263-5.068-1.193-7.073c1.679,0.326,3.468,0.465,5.058-0.165c1.59-0.63,2.906-2.213,2.745-3.916
				c-0.136-1.439-1.223-2.58-2.25-3.597c1.419-1.171,3.649-0.899,5.057-2.085c0.874-0.736,1.262-1.917,1.321-3.057
				c0.162-3.113-2.086-6.186-5.102-6.974c1.427-0.744,2.218-2.533,1.808-4.09c-0.41-1.556-1.737-3.204-3.345-3.149
				c0.566,0.016,0.994-0.496,1.283-0.983c1.656-2.781,1.783-6.41,0.327-9.301c-0.216-0.429-0.471-0.85-0.839-1.159
				c-0.469-0.394-1.085-0.572-1.694-0.638c-2.186-0.238-4.459,0.976-5.477,2.925c0.284-2.106-0.411-4.302-1.765-5.94
				c-1.047-1.266-2.938-2.226-4.287-1.288c0.995-3.893-0.458-8.303-3.573-10.843c-0.661-0.539-1.413-1.008-2.254-1.153
				c-0.819-0.141-1.662,0.036-2.446,0.313c-2.256,0.796-4.196,2.451-5.34,4.551c-0.267-2.238-0.694-4.752-2.55-6.03
				c-0.659-0.454-1.442-0.699-2.232-0.828c-1.831-0.298-3.827,0.052-5.253,1.239s-2.135,3.285-1.427,5
				c-0.83-1.836-3.185-2.812-5.07-2.101c-1.885,0.711-3.009,3-2.419,4.926c-2.652-1.747-6.656-0.916-8.394,1.742
				c-1.738,2.658-0.893,6.659,1.771,8.388c-2.058-0.535-4.105,1.048-5.211,2.864c-2.589,4.249-1.722,10.283,1.959,13.632
				C166.635,60.8,185.773,69.866,193.96,93.124z"/>
		</g>
		<path style="fill:#EF422A;" d="M154.72,54.534c0,0,9.624-5.825,21.781,2.279c12.157,8.105,15.069,17.855,14.943,22.541
			L154.72,54.534z"/>
		<path style="fill:#D82412;" d="M183.658,67.304c-1.736-1.686-3.64-3.188-5.697-4.464c-2.212-1.372-4.598-2.419-6.867-3.688
			c-1.173-0.656-2.317-1.36-3.415-2.134c-0.853-0.601-1.746-1.345-2.121-2.355c-0.269-0.724-0.158-1.397,0.157-2.009
			c-6.598-0.774-10.994,1.88-10.994,1.88l36.724,24.82c0.018-0.682-0.03-1.475-0.16-2.351
			C189.106,73.514,186.609,70.17,183.658,67.304z"/>
	</g>
	<g>
		<g>
			<path style="fill:#312324;" d="M54.448,99.264c-2.157,6.128-12.45,5.712-17.613,1.769c-0.678-0.518-1.336-1.154-1.536-1.983
				c-0.445-1.848,1.53-3.49,1.522-5.391c-1.705,0.858-4.049,0.016-4.817-1.732c0.309,1.896-0.195,3.96-1.526,5.346
				c-1.331,1.385-3.516,1.963-5.282,1.205c-1.647-0.706-2.689-2.385-3.208-4.101c-0.992-3.28-0.363-7.009,1.65-9.783
				c-2.322,0.45-4.796,0.643-6.995-0.228c-2.199-0.871-4.019-3.061-3.797-5.416c0.188-1.99,1.692-3.568,3.112-4.975
				c-1.963-1.62-5.047-1.244-6.994-2.884c-1.208-1.018-1.745-2.651-1.827-4.229c-0.224-4.306,2.884-8.555,7.056-9.646
				c-1.974-1.03-3.067-3.504-2.5-5.656c0.567-2.153,2.402-4.431,4.627-4.355c-0.783,0.021-1.374-0.687-1.775-1.36
				c-2.29-3.846-2.466-8.866-0.453-12.863c0.299-0.593,0.652-1.176,1.161-1.603c0.649-0.544,1.501-0.791,2.343-0.882
				c3.023-0.329,6.167,1.35,7.576,4.046c-0.393-2.913,0.569-5.95,2.441-8.215c1.447-1.751,4.064-3.078,5.929-1.782
				c-1.376-5.385,0.634-11.484,4.941-14.997c0.915-0.746,1.955-1.395,3.118-1.595c1.133-0.195,2.299,0.05,3.383,0.433
				c3.12,1.102,5.804,3.389,7.386,6.295c0.369-3.095,0.959-6.573,3.527-8.34c0.911-0.627,1.995-0.967,3.087-1.145
				c2.533-0.412,5.293,0.071,7.265,1.713c1.972,1.641,2.952,4.543,1.974,6.915c1.148-2.539,4.406-3.889,7.013-2.906
				c2.607,0.984,4.162,4.149,3.346,6.814c3.668-2.416,9.206-1.267,11.609,2.409c2.404,3.676,1.235,9.211-2.449,11.601
				c2.847-0.74,5.677,1.45,7.208,3.962c3.581,5.877,2.382,14.223-2.709,18.854C92.242,54.557,65.771,67.096,54.448,99.264z"/>
			<path style="opacity:0.31;fill:#312324;" d="M56.139,95.533c-1.82,5.171-10.506,4.82-14.862,1.493
				c-0.572-0.437-1.127-0.974-1.296-1.673c-0.376-1.559,1.291-2.945,1.285-4.549c-1.439,0.724-3.416,0.013-4.065-1.462
				c0.26,1.6-0.164,3.342-1.288,4.511s-2.967,1.656-4.457,1.017c-1.39-0.596-2.269-2.013-2.707-3.46
				c-0.837-2.768-0.306-5.915,1.392-8.255c-1.96,0.38-4.047,0.543-5.903-0.193c-1.856-0.735-3.391-2.583-3.204-4.571
				c0.159-1.679,1.428-3.011,2.626-4.198c-1.656-1.367-4.259-1.05-5.902-2.433c-1.02-0.859-1.472-2.237-1.542-3.568
				c-0.189-3.633,2.434-7.219,5.954-8.139c-1.665-0.869-2.588-2.956-2.11-4.773c0.478-1.816,2.027-3.739,3.904-3.675
				c-0.66,0.018-1.16-0.58-1.498-1.147c-1.932-3.245-2.081-7.481-0.382-10.854c0.252-0.501,0.55-0.992,0.979-1.352
				c0.548-0.459,1.267-0.668,1.977-0.745c2.551-0.277,5.204,1.139,6.392,3.414c-0.332-2.458,0.48-5.021,2.06-6.932
				c1.221-1.478,3.429-2.597,5.003-1.504c-1.161-4.544,0.535-9.691,4.169-12.655c0.772-0.63,1.649-1.177,2.631-1.346
				c0.956-0.165,1.94,0.042,2.855,0.365c2.632,0.93,4.897,2.86,6.233,5.312c0.312-2.612,0.809-5.546,2.976-7.038
				c0.769-0.529,1.683-0.816,2.605-0.966c2.137-0.348,4.466,0.06,6.13,1.445c1.664,1.385,2.491,3.834,1.666,5.835
				c0.968-2.143,3.717-3.282,5.917-2.452c2.2,0.83,3.512,3.501,2.823,5.75c3.095-2.039,7.768-1.069,9.796,2.033
				c2.028,3.102,1.042,7.772-2.067,9.789c2.402-0.625,4.791,1.224,6.082,3.343c3.022,4.959,2.01,12.001-2.286,15.909
				C88.03,57.809,65.694,68.39,56.139,95.533z"/>
			<path style="opacity:0.31;fill:#312324;" d="M57.834,93.124c-1.56,4.431-9.002,4.13-12.735,1.279
				c-0.49-0.374-0.966-0.834-1.11-1.434c-0.322-1.336,1.106-2.523,1.101-3.898c-1.233,0.621-2.927,0.011-3.483-1.252
				c0.223,1.371-0.141,2.863-1.103,3.865c-0.962,1.002-2.542,1.419-3.819,0.871c-1.191-0.511-1.944-1.725-2.319-2.965
				c-0.717-2.372-0.263-5.068,1.193-7.073c-1.679,0.326-3.468,0.465-5.058-0.165c-1.59-0.63-2.906-2.213-2.745-3.916
				c0.136-1.439,1.223-2.58,2.25-3.597c-1.419-1.171-3.649-0.899-5.057-2.085c-0.874-0.736-1.262-1.917-1.321-3.057
				c-0.162-3.113,2.085-6.186,5.101-6.974c-1.427-0.744-2.218-2.533-1.808-4.09c0.41-1.556,1.737-3.204,3.345-3.149
				c-0.566,0.016-0.994-0.496-1.283-0.983c-1.656-2.781-1.783-6.41-0.328-9.301c0.216-0.429,0.471-0.85,0.839-1.159
				c0.469-0.394,1.085-0.572,1.694-0.638c2.186-0.238,4.459,0.976,5.477,2.925c-0.284-2.106,0.411-4.302,1.765-5.94
				c1.047-1.266,2.938-2.226,4.287-1.288c-0.994-3.893,0.458-8.303,3.573-10.843c0.661-0.539,1.413-1.008,2.254-1.153
				c0.819-0.141,1.662,0.036,2.446,0.313c2.256,0.796,4.196,2.451,5.34,4.551c0.267-2.238,0.694-4.752,2.55-6.03
				c0.659-0.454,1.442-0.699,2.232-0.828c1.831-0.298,3.827,0.052,5.253,1.239s2.135,3.285,1.427,5
				c0.83-1.836,3.185-2.812,5.07-2.101c1.885,0.711,3.009,3,2.419,4.926c2.652-1.747,6.656-0.916,8.394,1.742
				c1.738,2.658,0.893,6.659-1.771,8.388c2.058-0.535,4.105,1.048,5.211,2.864c2.589,4.249,1.722,10.283-1.958,13.632
				C85.16,60.8,66.021,69.866,57.834,93.124z"/>
		</g>
		<path style="fill:#EF422A;" d="M97.074,54.534c0,0-9.624-5.825-21.781,2.279c-12.157,8.105-15.069,17.855-14.943,22.541
			L97.074,54.534z"/>
		<path style="fill:#D82412;" d="M68.137,67.304c1.736-1.686,3.64-3.188,5.697-4.464c2.212-1.372,4.598-2.419,6.867-3.688
			c1.173-0.656,2.317-1.36,3.415-2.134c0.853-0.601,1.746-1.345,2.121-2.355c0.269-0.724,0.158-1.397-0.157-2.009
			c6.598-0.774,10.994,1.88,10.994,1.88l-36.724,24.82c-0.018-0.682,0.03-1.475,0.16-2.351
			C62.689,73.514,65.186,70.17,68.137,67.304z"/>
	</g>
	<g>
		<path style="fill:#FFFFFF;" d="M143.717,166.779c0,0,7.931,8.427,19.332,3.966c11.401-4.461,6.247-14.101,1.124-16.663
			C159.43,151.71,142.726,151.247,143.717,166.779z"/>
		<g>
			<g>
				<circle style="fill:#5D3331;" cx="156.907" cy="161.345" r="8.044"/>
				<path style="fill:#1A1716;" d="M150.917,161.345c0,3.308,2.682,5.99,5.99,5.99c3.308,0,5.99-2.682,5.99-5.99
					c0-3.308-2.682-5.99-5.99-5.99C153.599,155.355,150.917,158.037,150.917,161.345z"/>
				<path style="fill:#FFFFFF;" d="M157.678,158.038c0,1.31,1.062,2.372,2.372,2.372s2.372-1.062,2.372-2.372
					s-1.062-2.372-2.372-2.372S157.678,156.728,157.678,158.038z"/>
				<path style="fill:#FFFFFF;" d="M161.923,161.549c0,0.387,0.314,0.7,0.7,0.7c0.387,0,0.7-0.314,0.7-0.7
					c0-0.387-0.313-0.701-0.7-0.701C162.237,160.848,161.923,161.162,161.923,161.549z"/>
			</g>
		</g>
		<path style="fill:#1A1212;" d="M138.554,141.994c0,0,0.991,4.833,3.966,4.585c2.974-0.248,4.213-0.124,15.491-2.107
			c11.277-1.983,14.871,0.868,19.332,3.718c-4.214-9.17-6.32-10.905-14.499-9.914C154.664,139.268,142.024,142.366,138.554,141.994z
			"/>
		<path style="fill:#1A1212;" d="M143.717,166.779c0,0-0.083-13.136,13.88-12.145c13.962,0.991,10.823,12.392,10.823,12.392
			s2.974-1.9,2.065-9.418c-0.578-3.966-9.583-7.601-19.167-4.792C141.735,155.626,143.222,165.127,143.717,166.779z"/>
		<path style="fill:#1A1212;" d="M144.252,154.463c0,0,10.012-11.19,27.765-0.589C165.791,147.732,154.18,143.694,144.252,154.463z"
			/>
	</g>
	<g>
		<path style="fill:#FFFFFF;" d="M109.101,166.779c0,0-7.931,8.427-19.332,3.966c-11.401-4.461-6.247-14.101-1.123-16.663
			C93.389,151.71,110.092,151.247,109.101,166.779z"/>
		<g>
			<g>
				<circle style="fill:#5D3331;" cx="95.911" cy="161.345" r="8.044"/>
				<circle style="fill:#1A1716;" cx="95.911" cy="161.345" r="5.99"/>
				<path style="fill:#FFFFFF;" d="M96.683,158.038c0,1.31,1.062,2.372,2.372,2.372c1.31,0,2.372-1.062,2.372-2.372
					s-1.062-2.372-2.372-2.372C97.744,155.666,96.683,156.728,96.683,158.038z"/>
				<path style="fill:#FFFFFF;" d="M100.928,161.549c0,0.387,0.314,0.7,0.7,0.7c0.387,0,0.7-0.314,0.7-0.7
					c0-0.387-0.314-0.701-0.7-0.701C101.241,160.848,100.928,161.162,100.928,161.549z"/>
			</g>
		</g>
		<path style="fill:#1A1212;" d="M114.264,141.994c0,0-0.991,4.833-3.965,4.585c-2.974-0.248-4.214-0.124-15.491-2.107
			c-11.277-1.983-14.871,0.868-19.332,3.718c4.213-9.17,6.32-10.905,14.499-9.914C98.154,139.268,110.794,142.366,114.264,141.994z"
			/>
		<path style="fill:#1A1212;" d="M109.101,166.779c0,0,0.083-13.136-13.88-12.145s-10.823,12.392-10.823,12.392
			s-2.974-1.9-2.065-9.418c0.578-3.966,9.584-7.601,19.167-4.792C111.083,155.626,109.596,165.127,109.101,166.779z"/>
		<path style="fill:#1A1212;" d="M108.566,154.463c0,0-10.012-11.19-27.765-0.589C87.027,147.732,98.638,143.694,108.566,154.463z"
			/>
	</g>
	<g>
		<g>
			<path style="opacity:0.47;fill:#834D2A;" d="M113.423,193.617c-1.158-0.556-2-1.735-2.228-2.987
				c-0.275-1.511,0.291-3.085,1.102-4.343c0.153-0.238-0.076-0.292-0.222-0.104c-1.058,1.368-1.856,3.061-1.629,4.832
				c0.189,1.471,1.049,2.867,2.519,3.309C113.238,194.406,113.746,193.771,113.423,193.617z"/>
			<path style="opacity:0.47;fill:#834D2A;" d="M139.697,193.617c1.158-0.556,2-1.735,2.228-2.987
				c0.275-1.511-0.291-3.085-1.102-4.343c-0.153-0.238,0.076-0.292,0.222-0.104c1.058,1.368,1.856,3.061,1.629,4.832
				c-0.189,1.471-1.049,2.867-2.519,3.309C139.882,194.406,139.374,193.771,139.697,193.617z"/>
			<g>
				<path style="opacity:0.47;fill:#834D2A;" d="M122.474,194.361c0,0-2.92-3.601-5.525-2.486
					C114.345,192.99,117.645,194.921,122.474,194.361z"/>
				<path style="opacity:0.47;fill:#834D2A;" d="M130.152,194.361c0,0,2.92-3.601,5.525-2.486
					C138.281,192.99,134.981,194.921,130.152,194.361z"/>
			</g>
		</g>
		<g>
			<path style="fill:#6F2C1F;" d="M114.719,212.879c7.022-0.165,8.592-2.065,12.31,0.33c3.883-2.313,9.17-0.661,12.888-0.496
				c2.011,0.089,4.601-0.691,6.556-1.427c-3.299,0.364-6.295-2.613-10.846-5.174c-4.827-2.715-6.427,1.904-10.802-0.208
				c-4.375-2.112-9.579,1.056-13.124,3.847c-3.545,2.791-6.11,0.98-6.11,0.98s-0.175,0.482,1.345,1.122
				C108.948,212.443,111.615,212.952,114.719,212.879z"/>
			<path style="fill:#AD4637;" d="M139.917,212.714c-3.718-0.165-9.005-1.818-12.888,0.496c-3.718-2.396-5.287-0.496-12.31-0.33
				c-3.104,0.073-5.771-0.435-7.783-1.025c0.182,0.076,0.383,0.155,0.616,0.235c2.187,0.754,3.092,0.377,9.127,5.204
				c6.034,4.827,15.01,3.093,19.913-0.377c4.903-3.47,6.034-3.771,10.484-5.732c-0.202,0.047-0.403,0.08-0.603,0.102
				C144.518,212.022,141.928,212.803,139.917,212.714z"/>
			<path style="opacity:0.23;fill:#AD4637;" d="M135.622,215.455c0.167,0.527-0.786,1.301-2.13,1.728
				c-1.344,0.427-2.569,0.346-2.736-0.182c-0.168-0.527,0.786-1.301,2.13-1.728C134.23,214.846,135.455,214.927,135.622,215.455z"/>
		</g>
		<path style="fill:#6F2C1F;" d="M122.237,222.38c0,0,6.361,0.991,9.997-0.413C130.416,223.536,125.046,223.949,122.237,222.38z"/>
		<path style="opacity:0.2;fill:#AE5733;" d="M111.778,188.065c0,0,4.376-3.183,7.825-4.244c5.835,1.724,13.395,0.531,14.589-0.133
			c1.194-0.663,7.162,5.04,7.162,5.04s-1.592-11.273-14.589-11.273C113.767,177.456,111.778,188.065,111.778,188.065z"/>
		<ellipse style="opacity:0.2;fill:#AE5733;" cx="127.882" cy="180.648" rx="2.966" ry="1.088"/>
		<ellipse style="opacity:0.47;fill:#834D2A;" cx="126.91" cy="201.441" rx="1.287" ry="0.509"/>
	</g>
	<path style="fill:#312324;" d="M68.041,160.087c0,0-1.458-19.158,1.582-23.134c3.04-3.976,10.314-11.317,11.967-26.849
		c11.236-17.184,35.36-20.324,41.804-17.68c3.305-1.983,3.966-3.139,3.966-3.139s0.331,3.635-0.165,5.122
		c9.583-4.792,26.437-4.131,43.621,13.218c3.47,5.287,2.148,20.489,13.714,30.568c1.652,3.139,0,21.976,0,21.976
		s19.425-31.984,15.862-58.823c-3.718-28.007-37.673-57.749-73.859-45.108c-8.179-5.205-35.442-5.701-57.005,12.888
		C47.965,87.715,45.735,127.123,68.041,160.087z"/>
	<path style="opacity:0.31;fill:#312324;" d="M199.348,121.302c-2.55,2.282-5.651,3.852-9.144,2.919
		c-3.099-0.828-5.567-3.207-7.52-5.642c-2.953-3.681-4.774-8.061-6.853-12.254c-1.069-2.157-2.231-4.275-3.675-6.208
		c-1.163-1.558-2.526-2.971-3.975-4.264c-3.025-2.699-6.482-4.905-10.146-6.631c-7.188-3.385-15.88-5.204-23.566-2.428
		c-0.441,0.159-0.654-0.817-0.498-1.08c0.883-1.489,2.254-2.68,3.427-3.933c0.555-0.593,1.104-1.199,1.567-1.868
		c0.225-0.325,0.721-0.966,0.621-1.401c-0.043-0.186-0.523-0.48-0.75-0.604c-0.543-0.296-1.147-0.491-1.737-0.666
		c-1.398-0.416-2.837-0.683-4.269-0.95c-1.038-0.193-2.157-0.31-3.147-0.692c-0.405-0.156-0.445-0.891-0.167-1.164
		c1.862-1.818,4.332-2.763,6.668-3.843c-1.747-1.061-3.811-1.434-5.806-1.859c-1.433-0.305-3.293-0.68-3.807-2.272
		c-0.306-0.949-0.07-1.99,0.268-2.894c0.461-1.236,1.117-2.39,1.896-3.452c1.76-2.399,4.076-4.335,6.5-6.033
		c0.079-0.056,0.163-0.107,0.243-0.162c-3.011,0.489-6.055,1.249-9.115,2.318c-1.785-1.136-4.481-2.048-7.827-2.586
		c1.75,0.954,3.411,2.211,4.352,3.967c2.915,5.442-2.709,9.079-6.99,11.762c2.792-0.105,5.559,0.197,7.983,1.78
		c0.333,0.218,0.279,0.923-0.049,1.119c-1.555,0.93-3.223,1.686-4.722,2.707c0.751,0.487,1.488,0.994,2.176,1.565
		c2.173,1.804,4.232,4.792,2.123,7.438c-0.863,1.083-2.127,1.832-3.346,2.448c-1.612,0.815-3.325,1.427-5.044,1.973
		c-3.779,1.2-7.649,2.069-11.479,3.082c-1.428,0.378-2.874,0.756-4.247,1.307c-2.635,1.057-5.117,2.546-7.337,4.31
		c-4.719,3.749-8.153,8.766-11.191,13.908c-3.121,5.281-5.865,10.833-9.543,15.763c-2.039,2.734-4.129,5.541-6.9,7.581
		c-2.227,1.64-4.894,2.665-7.662,2.823c-0.054,0.003-0.107,0.002-0.161,0.004c2.594,7.752,6.358,15.488,11.372,22.899
		c0,0-1.458-19.158,1.582-23.134c3.04-3.976,10.314-11.316,11.967-26.848c11.236-17.184,35.36-20.324,41.804-17.68
		c3.305-1.983,3.966-3.139,3.966-3.139s0.33,3.635-0.165,5.122c9.583-4.792,26.437-4.131,43.621,13.219
		c3.47,5.287,2.148,20.489,13.714,30.568c1.652,3.139,0,21.976,0,21.976S195.481,141.848,199.348,121.302z"/>
</g>
</svg>
